<svg xmlns="http://www.w3.org/2000/svg" width="44.75" height="25.61" viewBox="0 0 44.75 25.61">
  <g id="delivery-van-svgrepo-com" transform="translate(0 -9.57)">
    <path id="Path_482" data-name="Path 482" d="M37.409,18.905l-4.946-7.924A3,3,0,0,0,29.918,9.57H3a3,3,0,0,0-3,3V29.43a3,3,0,0,0,3,3h.787a4.725,4.725,0,0,0,8.585,0H32.379a4.724,4.724,0,0,0,8.584,0h.787a3,3,0,0,0,3-3v-2.5A8.078,8.078,0,0,0,37.409,18.905ZM8.087,32.4a1.964,1.964,0,1,1,1.963-1.963A1.963,1.963,0,0,1,8.087,32.4ZM26.042,21v-8.43h3.876L35.182,21ZM36.671,32.4a1.964,1.964,0,1,1,1.963-1.963A1.963,1.963,0,0,1,36.671,32.4Z" fill="#ffa567"/>
  </g>
</svg>
